<svg width="719" height="424" viewBox="0 0 719 424" fill="none" xmlns="http://www.w3.org/2000/svg">
<mask id="mask0_3622_17888" style="mask-type:alpha" maskUnits="userSpaceOnUse" x="0" y="0" width="720" height="424">
<path d="M0.00390625 0H679.004C701.095 0 719.004 17.9086 719.004 40V424H0.00390625V0Z" fill="#D9D9D9"/>
</mask>
<g mask="url(#mask0_3622_17888)">
<path opacity="0.77" d="M368.639 457.862C361.407 445.284 353.763 432.865 345.131 421.239C351.094 441.089 359.299 460.175 367.905 478.923C370.417 484.368 374.175 491.997 376.862 497.429C378.254 500.268 381.677 501.407 384.486 499.964C386.917 498.711 388.092 495.947 387.467 493.403C385.903 486.871 384.327 480.378 382.576 473.898C378.244 457.657 373.376 441.561 367.426 425.858C366.235 422.708 364.978 419.56 363.606 416.443C363.752 419.867 364.04 423.247 364.373 426.618C365.413 437.092 366.875 447.519 368.639 457.862ZM422.947 425.651C418.414 416.829 414.182 407.857 410.406 398.653C409.275 395.87 408.176 393.053 407.186 390.16C409.257 392.376 411.207 394.642 413.119 396.962C426.382 413.035 437.962 430.432 448.683 448.335C451.954 454.03 444.864 460.028 439.961 455.631C422.928 439.644 406.364 422.883 392.506 403.883C403.14 410.421 413.204 417.79 422.928 425.645L422.947 425.651ZM420.602 369.189C435.16 370.3 449.63 372.694 463.949 375.522C454.617 369.703 445.46 363.589 436.612 357.087C433.883 355.066 431.16 353.025 428.504 350.831C434.995 352.937 441.287 355.42 447.568 358.009C463.128 364.459 478.347 371.832 493.258 379.657L502.156 384.428C504.444 385.641 505.664 388.341 504.948 391.004C504.125 394.092 501 395.943 497.975 395.119C492.172 393.569 484.025 391.421 478.349 389.734C458.773 383.972 439.222 377.629 420.608 369.169L420.602 369.189ZM514.564 314.636C486.058 321.624 457.28 328.093 428.246 332.284C447.449 324.502 467.146 317.85 486.925 311.636C471.44 312.47 455.941 312.994 440.522 313.04C435.659 313.059 430.801 312.992 425.928 312.833C435.44 310.66 445.001 308.894 454.597 307.225C478.465 303.137 502.582 299.996 526.622 297.398L541.079 295.929C543.819 295.641 546.406 297.423 547.102 300.228C547.864 303.313 546.016 306.464 542.971 307.27C534.602 309.483 522.879 312.604 514.571 314.616L514.564 314.636ZM511.741 224.297C519.975 219.406 536.562 209.724 544.869 204.942C547.335 203.504 550.505 204.131 552.217 206.478C554.082 209.024 553.525 212.65 551.006 214.552C536.356 225.689 520.178 237.849 505.356 248.564C479.702 267.116 453.799 285.354 426.986 302.14C446.835 283.824 467.486 266.47 488.385 249.429C469.709 259.441 450.882 269.103 431.991 278.265C426.227 281.066 420.428 283.768 414.582 286.413C425.047 278.944 435.741 271.85 446.482 264.813C467.877 250.887 489.839 237.351 511.741 224.297ZM517.093 110.995L535.037 89.2706C536.924 86.9822 540.257 86.5026 542.673 88.2114C545.229 90.0274 545.814 93.6271 543.994 96.2626C525.773 122.461 504.66 152.367 486.039 178.117C460.839 212.855 435.199 247.635 408.578 281.269C429.698 246.437 452.035 212.037 474.61 178.057C451.738 204.424 428.547 230.5 404.935 256.056C401.718 259.492 398.54 262.94 395.271 266.339C399.979 259.797 407.229 250.14 412.094 243.645C446.048 198.59 481.299 154.558 517.054 110.983L517.093 110.995ZM370.394 255.514C386.101 215.062 402.905 175.092 419.997 135.232C432.24 106.645 446.463 74.4683 459.2 45.9438L472.548 16.3165C473.776 13.5896 476.886 12.2144 479.702 13.2366C482.649 14.3202 484.136 17.6244 483.039 20.6302C453.346 101.922 422.567 183.911 388.855 263.557C402.452 218.959 417.127 174.402 432.36 130.057C421.6 152.722 410.721 175.286 399.781 197.483C390.131 216.886 380.515 236.319 370.427 255.546L370.394 255.514ZM343.818 248.626C349.669 196.92 356.706 145.398 364.043 93.8779C369.302 56.9313 375.637 15.2059 381.395 -21.8307L387.493 -60.3564C387.968 -63.3536 390.676 -65.5257 393.675 -65.2551C396.799 -64.969 399.073 -62.1474 398.759 -58.9712C388.414 44.1937 377.16 148.459 362.49 251.063C365.41 197.581 369.311 143.828 373.777 90.1141C368.948 117.596 363.975 144.991 358.896 172.027C354.028 197.579 349.174 223.156 343.818 248.626ZM314.172 251.367C306.458 189.996 299.922 128.478 293.691 66.9429C289.223 22.7939 284.564 -27.1908 280.538 -71.5992L276.456 -117.813C276.189 -120.836 278.311 -123.621 281.319 -124.089C284.418 -124.574 287.3 -122.42 287.738 -119.257C304.872 2.58133 321.545 126.658 334.354 249.004C322.557 183.569 311.734 117.315 301.488 50.9952C304.151 86.9253 306.666 122.92 308.93 158.686C310.818 189.586 312.757 220.457 314.16 251.407L314.172 251.367ZM156.375 -123.979C206.922 2.57543 257.6 131.677 303.977 259.789C276.425 197.222 249.494 133.729 223.064 69.9942C233.638 101.394 244.069 132.772 254.136 163.582C264.571 195.659 275.025 227.742 285.003 259.987C260.471 197.194 237.028 133.988 213.873 70.6728C191.821 10.3059 167.143 -58.9631 145.781 -119.776C143.577 -127.025 153.449 -130.747 156.401 -123.993L156.375 -123.979Z" fill="url(#paint0_radial_3622_17888)"/>
<path d="M311.007 411.732C307.867 402.608 304.998 393.355 302.918 383.911C310.151 395.444 316.09 407.809 321.684 420.267C323.31 423.884 325.474 429.092 327.008 432.798C327.815 434.734 326.935 436.994 325.036 437.851C323.404 438.592 321.546 438.04 320.544 436.626C318.001 433.053 315.461 429.465 313.011 425.802C306.857 416.65 300.996 407.288 295.784 397.527C294.735 395.555 293.716 393.578 292.767 391.547C294.378 393.08 295.923 394.653 297.443 396.262C302.159 401.246 306.658 406.416 311.007 411.732ZM272.276 426.513C269.851 420.404 267.234 414.388 264.287 408.512C263.395 406.74 262.476 404.962 261.461 403.229C261.675 405.25 261.968 407.235 262.291 409.214C264.603 422.964 268.282 436.39 272.552 449.586C273.974 453.708 279.912 452.536 279.823 448.11C279.152 432.431 277.879 416.663 274.391 401.366C273.122 409.689 272.502 418.084 272.267 426.496L272.276 426.513ZM245.501 401.36C239.908 409.449 234.991 418.034 230.34 426.718C231.408 419.359 232.257 411.986 232.803 404.603C232.968 402.31 233.103 400.023 233.148 397.712C231.451 401.992 230.015 406.341 228.636 410.735C225.254 421.607 222.452 432.705 220.009 443.813L218.593 450.491C218.235 452.202 219.043 453.98 220.651 454.738C222.522 455.609 224.737 454.765 225.614 452.833C227.307 449.14 229.684 443.98 231.253 440.282C236.667 427.585 241.8 414.685 245.488 401.356L245.501 401.36ZM179.08 427.423C194.531 415.463 209.853 403.153 224.146 389.737C212.214 396.483 200.637 403.982 189.256 411.692C196.191 403.946 202.983 396.061 209.514 388.006C211.567 385.47 213.589 382.897 215.566 380.283C210.491 384.337 205.584 388.594 200.731 392.909C188.665 403.662 176.942 414.952 165.543 426.442L158.726 433.374C157.428 434.692 157.215 436.801 158.296 438.336C159.498 440.047 161.824 440.408 163.51 439.151C168.13 435.706 174.606 430.892 179.1 427.399L179.08 427.423ZM135.835 387.674C129.949 389.907 118.205 394.48 112.35 396.807C110.609 397.491 109.569 399.408 110.011 401.304C110.483 403.351 112.489 404.602 114.491 404.088C126.137 401.138 138.939 397.821 150.46 394.608C170.403 389.049 190.28 383.215 209.844 376.307C192.477 378.939 175.229 382.376 158.044 386.103C170.839 380.562 183.537 374.809 195.996 368.806C199.797 366.979 203.585 365.091 207.346 363.153C199.264 365.475 191.269 368.049 183.282 370.697C167.422 375.981 151.506 381.738 135.848 387.678L135.835 387.674ZM77.8887 342.477L59.6403 342.666C57.7271 342.687 56.0779 344.227 55.9097 346.218C55.726 348.32 57.2547 350.161 59.3013 350.319C79.8518 351.89 103.468 353.504 123.985 354.679C151.691 356.206 179.603 357.529 207.352 357.849C181.313 354.142 155.001 351.251 128.77 348.683C151.384 347.893 173.981 346.798 196.487 345.262C199.529 345.026 202.574 344.833 205.611 344.566C200.416 344.258 192.602 343.956 187.365 343.751C150.903 342.431 114.392 342.231 77.8887 342.477ZM210.777 326.942C184.271 318.035 157.532 309.897 130.731 301.943C111.517 296.24 89.6887 290.055 70.3021 284.635L50.1045 279.07C48.2453 278.575 46.2574 279.609 45.5844 281.509C44.8735 283.499 45.878 285.688 47.8079 286.389C100.292 305.296 153.577 323.915 206.951 340.004C179.289 328.223 151.205 317.031 122.979 306.217C138.657 310.191 154.338 314.051 169.859 317.725C183.469 320.89 197.082 324.098 210.774 326.955L210.777 326.942ZM218.6 310.112C190.715 291.273 162.408 273.125 133.987 255.147C113.612 242.251 90.4108 227.886 69.7818 215.209L48.27 202.082C46.5924 201.062 44.3878 201.551 43.2551 203.242C42.0786 204.994 42.5034 207.372 44.2069 208.557C99.2877 246.84 155.304 285.113 211.924 320.909C184.396 299.786 156.317 279.06 128.032 258.637C143.58 267.753 159.144 276.758 174.581 285.557C189.2 293.823 203.808 302.129 218.597 310.125L218.6 310.112ZM232.447 295.76C205.524 265.72 178.03 236.26 150.406 206.923C130.583 185.886 107.966 162.269 87.8324 141.351L66.8242 119.64C65.4462 118.226 63.1856 118.14 61.6903 119.52C60.1418 120.943 59.9967 123.371 61.3484 124.935C114.018 185.504 168.002 246.782 222.747 305.308C195.541 271.422 167.543 237.683 139.257 204.241C155.801 220.863 172.43 237.422 189.065 253.752C203.461 267.824 217.823 281.915 232.447 295.76ZM114.432 54.2101C155.355 134.264 197.45 215.462 240.895 293.994C221.756 253.079 201.886 212.084 181.705 171.264C192.691 190.091 203.72 208.858 214.622 227.161C225.995 246.206 237.364 265.265 249.018 284.141C228.496 244.707 207.298 205.667 185.935 166.726C165.544 129.621 141.903 87.364 121.009 50.4264C118.376 46.1977 112.378 49.7917 114.462 54.2037L114.432 54.2101Z" fill="url(#paint1_radial_3622_17888)"/>
</g>
<defs>
<radialGradient id="paint0_radial_3622_17888" cx="0" cy="0" r="1" gradientUnits="userSpaceOnUse" gradientTransform="translate(311.826 214.626) rotate(-143.565) scale(299.942 304.388)">
<stop stop-color="#F47920"/>
<stop offset="0.65" stop-color="#DC3069"/>
<stop offset="1" stop-color="#D20F8C"/>
</radialGradient>
<radialGradient id="paint1_radial_3622_17888" cx="0" cy="0" r="1" gradientUnits="userSpaceOnUse" gradientTransform="translate(215.286 278.964) rotate(-85.9832) scale(202.21 196.775)">
<stop offset="0.3" stop-color="#FDEE00"/>
<stop offset="0.36" stop-color="#F2EB06"/>
<stop offset="0.47" stop-color="#D5E416"/>
<stop offset="0.61" stop-color="#A6D831"/>
<stop offset="0.77" stop-color="#66C956"/>
<stop offset="0.96" stop-color="#14B585"/>
<stop offset="1" stop-color="#00B091"/>
</radialGradient>
</defs>
</svg>
