<svg id="e9VB104DMi61" xmlns="http://www.w3.org/2000/svg" xmlns:xlink="http://www.w3.org/1999/xlink" viewBox="0 0 300 300" shape-rendering="geometricPrecision" text-rendering="geometricPrecision"><line x1="-26.198505" y1="-16.671776" x2="26.198506" y2="16.671776" transform="translate(91.952363 109.851425)" fill="none" stroke="#3f5787" stroke-width="3"/><line x1="-27.114537" y1="-8.519095" x2="27.114537" y2="8.519094" transform="translate(92.868395 101.332331)" fill="none" stroke="#3f5787" stroke-width="3"/><line x1="4.03054" y1="20.2443" x2="-4.03054" y2="-20.2443" transform="translate(115.952393 89.607125)" fill="none" stroke="#3f5787" stroke-width="3"/><line x1="-14.839713" y1="-15.984753" x2="14.839713" y2="15.984753" transform="translate(126.761566 85.347578)" fill="none" stroke="#3f5787" stroke-width="3"/><line x1="-11.358792" y1="18.916054" x2="11.358792" y2="-18.916054" transform="translate(152.960072 82.416277)" fill="none" stroke="#3f5787" stroke-width="3"/><line x1="0" y1="-18.916054" x2="0" y2="18.916054" transform="translate(164.318864 82.416277)" fill="none" stroke="#3f5787" stroke-width="3"/><line x1="-27.297743" y1="7.992376" x2="27.297744" y2="-7.992376" transform="translate(191.616608 93.339954)" fill="none" stroke="#3f5787" stroke-width="3"/><line x1="21.068729" y1="-12.251924" x2="-21.068728" y2="12.251924" transform="translate(197.845624 97.599502)" fill="none" stroke="#3f5787" stroke-width="3"/><line x1="-35.542028" y1="-9.251919" x2="35.542028" y2="9.25192" transform="translate(212.318924 119.103345)" fill="none" stroke="#3f5787" stroke-width="3"/><line x1="35.542028" y1="0" x2="-35.542028" y2="0" transform="translate(212.318924 128.355265)" fill="none" stroke="#3f5787" stroke-width="3"/><line x1="-7.419856" y1="-15.755744" x2="7.419856" y2="15.755744" transform="translate(184.196752 144.111009)" fill="none" stroke="#3f5787" stroke-width="3"/><line x1="19.328268" y1="13.190855" x2="-19.328268" y2="-13.190855" transform="translate(172.28834 146.675898)" fill="none" stroke="#3f5787" stroke-width="3"/><line x1="0" y1="-16.671775" x2="0" y2="16.671776" transform="translate(152.960072 150.156819)" fill="none" stroke="#3f5787" stroke-width="3"/><line x1="13.099253" y1="16.671776" x2="-13.099253" y2="-16.671775" transform="translate(139.860819 150.156819)" fill="none" stroke="#3f5787" stroke-width="3"/><line x1="24.274839" y1="-16.671775" x2="-24.274839" y2="16.671776" transform="translate(102.486727 150.156819)" fill="none" stroke="#3f5787" stroke-width="3"/><line x1="-16.854982" y1="19.236665" x2="16.854983" y2="-19.236665" transform="translate(95.066871 147.59193)" fill="none" stroke="#3f5787" stroke-width="3"/><line x1="-4.03054" y1="0.916032" x2="4.03054" y2="-0.916032" transform="translate(115.952393 127.439233)" fill="none" stroke="#3f5787" stroke-width="3"/></svg>
